<svg id="Layer_1" data-name="Layer 1" xmlns="http://www.w3.org/2000/svg" xmlns:xlink="http://www.w3.org/1999/xlink" viewBox="0 0 468.55588 302.7988">
  <defs>
    <style>
      .cls-1 {
        fill: url(#linear-gradient);
      }
    </style>
    <linearGradient id="linear-gradient" x1="59.24088" y1="251.05397" x2="527.79676" y2="251.05397" gradientUnits="userSpaceOnUse">
      <stop offset="0" stop-color="aqua"/>
      <stop offset="1" stop-color="#fcee21"/>
    </linearGradient>
  </defs>
  <path class="cls-1" d="M454.05026,138.49879c-.97571-.00159-1.9516.14959-3.53235.28607v6.60583c2.35657-2.14319,4.54712-4.13544,7.2287-6.57428C455.98349,138.65589,455.017,138.50037,454.05026,138.49879Zm-180.6662,75.33428c-1.35162,1.35444-2.57623,2.83539-3.3092,3.6474,5.1955,5.26056,9.93732,10.06171,15.07745,15.26612,25.38074-25.658,51.027-51.58441,76.51813-77.354,7.3324.39325,13.8783-.1809,19.16309-5.161a21.8552,21.8552,0,0,0,7.21881-18.33264c-.89759-11.72351-12.618-21.51269-23.71942-20.04956-13.27875,1.75-22.78589,13.13587-19.17957,29.42767C322.02327,166.18616,297.15605,189.51554,273.38406,213.83307ZM366.491,122.48286a11.66337,11.66337,0,0,1,10.85565,11.45086c-.02478,5.88324-5.22955,11.22431-11.02319,11.31183A11.191,11.191,0,0,1,355.114,133.79676,11.32921,11.32921,0,0,1,366.491,122.48286ZM506.57486,99.66273a22.19688,22.19688,0,0,0-15.58472,5.59857c-6.84564,5.98718-7.7337,13.95-6.74756,22.35455C434.6362,179.44706,383.39418,228.5,333.56674,279.88209c5.17407,5.16919,9.91815,9.90875,15.20648,15.192q75.27842-75.79174,150.83387-151.86236c7.43.74359,14.03912.158,19.6347-4.14734a21.50648,21.50648,0,0,0,8.55493-17.75714C527.81772,109.90754,517.98624,99.95081,506.57486,99.66273Zm-.91022,32.94757c-6.36719.00238-10.83362-4.51111-10.82379-10.93781a11.04842,11.04842,0,0,1,10.78394-11.22192,11.54084,11.54084,0,0,1,11.33239,10.90326A11.102,11.102,0,0,1,505.66464,132.6103Zm-202.29907,118.342c5.43329,5.25958,10.3634,10.0321,15.39386,14.90173q50.007-49.73053,101.09418-100.53522c6.60284.08771,13.21338-.188,18.6947-4.89788,5.5365-4.75739,8.509-10.86561,8.19287-17.968-3.18637-31.9535-49.92533-25.96335-43.3114,8.1405Q353.22309,200.94791,303.36557,250.95234ZM424.78305,132.27942c6.09876.03376,11.29456,5.03449,11.27972,10.85627a11.3603,11.3603,0,0,1-22.71331.3778A11.26744,11.26744,0,0,1,424.78305,132.27942Zm30.22186,126.89563c-.95166-11.787-11.87957-20.14044-24.87933-18.93121-13.3986.99115-21.95,16.31369-18.054,28.11365-18.21624,18.17328-35.94159,35.85687-52.89141,52.76678C321.748,283.79035,283.90274,246.0445,246.42068,208.66083c11.63886-11.61322,23.71509-23.66278,36.48737-36.40686,14.70267,1.82315,27.89455-8.08733,26.44984-24.2932-3.69223-27.24954-46.02031-27.40743-43.29792,9.222-17.02167,16.998-34.27112,34.22357-50.98108,50.9104,48.46118,48.45727,96.466,96.45825,144.871,144.85937,22.68567-22.70154,45.81134-45.84332,68.663-68.71094C447.66568,282.53577,456.2233,274.26624,455.00491,259.17505ZM287.62247,139.31556a10.9496,10.9496,0,0,1,10.98968,11.10278c.11333,14.82173-21.62482,14.56324-22.19181.356A11.09025,11.09025,0,0,1,287.62247,139.31556ZM433.21506,273.10645a11.27017,11.27017,0,0,1-11.14228-11.01568c.08945-14.60983,22.1819-14.98689,22.19377-.04194A11.14281,11.14281,0,0,1,433.21506,273.10645Zm68.67035-13.01874c-11.964-.35747-15.66138-8.78815-14.9497-19.62105-.19745-22.48564.40608-44.94263-.27-67.42008-7.39124,7.176-14.28888,13.87292-21.31738,20.69683,0,17.19-.33411,34.46723.12237,51.72364.28443,10.75341,4.46485,19.7243,15.42267,23.98187.07922.03082.07471.27667.1814.725a18.64727,18.64727,0,0,1-2.0055,1.06011c-11.9202,4.36139-13.74908,17.386-13.83724,28.46584-.16282,9.967-.05247,19.93852-.05338,29.90831-.00092,10.4682.08154,20.93732-.02924,31.40442-.18681,18.14476-14.78005,19.86445-29.35516,21.37439-1.20276,5.75152-.97382,15.32709.44952,18.98346,18.19013,1.23848,44.69582-.66019,48.92117-22.60336a92.19687,92.19687,0,0,0,1.692-15.28159c1.17709-23.37773.22525-46.58389.207-70.28064,1.61678-13.87863,10.21885-13.05888,21.74813-13.66064v-19.444C506.10715,260.10023,503.99307,260.17261,501.88541,260.08771ZM134.18283,178.21039c47.64689,47.73074,95.30374,94.94454,142.88825,142.85358l-48.4903,49.5672c-11.72089-11.75293-22.93182-22.99445-34.51776-34.612,4.46715-34.80356-41.81584-35.29286-43.34983-6.37627-.34762,15.02971,9.4733,23.40789,27.41691,22.99035,16.31842,16.29577,32.86236,32.81677,49.88934,49.82013,25.81252-27.68646,52.71849-53.83055,78.86908-81.08484q-79.415-79.222-157.92023-157.53632C144.42361,168.25171,139.4548,173.08369,134.18283,178.21039ZM172.429,341.902a11.10459,11.10459,0,0,1-10.8667-11.2843c.62367-14.59376,21.89929-14.27,22.14562.35A11.27059,11.27059,0,0,1,172.429,341.902Zm-8.2132-72.83441c10.08771,9.47992,20.19012,18.8335,30.13428,28.35224,15.886,14.64326,30.45971,30.65056,46.99261,44.54919,4.985-5.20453,9.62451-10.04834,14.64429-15.28918-25.73761-24.68-50.994-48.8985-76.34113-73.204.09693-1.43934.08-2.27369.21851-3.08142,2.1438-12.5022-7.22266-23.024-17.23206-24.71546-8.77368-1.48266-16.19653.94281-21.73761,7.95783-5.68805,7.201-6.29895,15.30157-2.4085,23.40649C143.63573,267.87178,153.05727,269.658,164.21579,269.06757Zm-17.28088-21.86792c-.0282-5.57532,5.58038-11.09753,11.26934-11.09582,5.66632.00164,11.31922,5.573,11.26636,11.10388-.053,5.54889-5.73138,11.063-11.35022,11.02191A11.35517,11.35517,0,0,1,146.93491,247.19965ZM130.7468,137.68287c-8.58265.69592-17.29267.75177-25.70942,2.34619-17.74193,3.06363-24.21872,18.04716-23.30216,34.79978-.04714,21.2626-.00136,42.52554-.05184,63.78829a51.06283,51.06283,0,0,1-.64124,7.91583c-1.94817,13.83949-9.776,13.29506-21.80126,13.86133v19.60028c10.9026-.2071,19.76106-.68441,21.70143,12.11927a63.97011,63.97011,0,0,1,.7379,9.899c.097,22.92316-.072,45.84876.20691,68.76923.18408,15.12769,8.25567,24.966,22.85858,28.69666,8.77356,2.24151,17.73535,2.4826,26.728,2.03418a5.56613,5.56613,0,0,0,1.71033-.69733V382.33173c-16.33027-1.49106-29.77191-3.46824-30.22865-22.865-.0572-9.79876.01912-19.60171-.02194-29.40195-.02883-12.292.147-24.59057-.20082-36.874-.28772-10.16-4.1941-18.38733-14.30695-22.507-.34088-.13891-.50421-.713-.83563-1.21289a14.2999,14.2999,0,0,1,1.80353-1.077c7.51177-3.05133,11.43255-8.9458,12.63659-16.642a89.52023,89.52023,0,0,0,.8692-13.37714c.08954-19.1029-.002-38.20666.06171-57.30981.02216-6.65644,1.36328-12.84174,6.82263-17.48841,6.79446-5.61053,15.33188-5.30174,23.67493-6.70807.10687-6.53955.37353-12.58221-.1604-18.53381A10.398,10.398,0,0,0,130.7468,137.68287Z" transform="translate(-59.24088 -99.65457)"/>
</svg>
